<svg viewBox="0 0 13 13" fill="none" xmlns="http://www.w3.org/2000/svg">
<path d="M10.875 7.125V10.875C10.875 11.2065 10.7433 11.5245 10.5089 11.7589C10.2745 11.9933 9.95652 12.125 9.625 12.125H2.125C1.79348 12.125 1.47554 11.9933 1.24112 11.7589C1.0067 11.5245 0.875 11.2065 0.875 10.875V3.375C0.875 3.04348 1.0067 2.72554 1.24112 2.49112C1.47554 2.2567 1.79348 2.125 2.125 2.125H5.875V3.375H2.125V10.875H9.625V7.125H10.875ZM7.125 0.875V2.125H9.99125L5.12063 6.99563L6.00437 7.87937L10.875 3.00875V5.875H12.125V0.875H7.125Z" fill="#27DEBF"/>
</svg>
