<svg width="27" height="44" viewBox="0 0 27 44" fill="none" xmlns="http://www.w3.org/2000/svg">
<path fill-rule="evenodd" clip-rule="evenodd" d="M21.6 2.7H5.4C4.68392 2.7 3.99716 2.98446 3.49081 3.49081C2.98446 3.99716 2.7 4.68392 2.7 5.4V37.8C2.7 38.5161 2.98446 39.2028 3.49081 39.7092C3.99716 40.2155 4.68392 40.5 5.4 40.5H21.6C22.3161 40.5 23.0028 40.2155 23.5092 39.7092C24.0155 39.2028 24.3 38.5161 24.3 37.8V5.4C24.3 4.68392 24.0155 3.99716 23.5092 3.49081C23.0028 2.98446 22.3161 2.7 21.6 2.7ZM5.4 0C3.96783 0 2.59432 0.568927 1.58162 1.58162C0.568927 2.59432 0 3.96783 0 5.4V37.8C0 39.2322 0.568927 40.6057 1.58162 41.6184C2.59432 42.6311 3.96783 43.2 5.4 43.2H21.6C23.0322 43.2 24.4057 42.6311 25.4184 41.6184C26.4311 40.6057 27 39.2322 27 37.8V5.4C27 3.96783 26.4311 2.59432 25.4184 1.58162C24.4057 0.568927 23.0322 0 21.6 0L5.4 0Z" fill="#27DEBF"/>
<path fill-rule="evenodd" clip-rule="evenodd" d="M13.5 37.7999C14.2161 37.7999 14.9028 37.5154 15.4092 37.0091C15.9155 36.5027 16.2 35.816 16.2 35.0999C16.2 34.3838 15.9155 33.6971 15.4092 33.1907C14.9028 32.6844 14.2161 32.3999 13.5 32.3999C12.7839 32.3999 12.0971 32.6844 11.5908 33.1907C11.0845 33.6971 10.8 34.3838 10.8 35.0999C10.8 35.816 11.0845 36.5027 11.5908 37.0091C12.0971 37.5154 12.7839 37.7999 13.5 37.7999Z" fill="#27DEBF"/>
</svg>
