<svg viewBox="0 0 2321 209" fill="none" xmlns="http://www.w3.org/2000/svg">
<path d="M109.274 80.8205H0V208H1280V41.8462H1199.04V107.487H1084.8V41.8462H895.056V55.3846H828.002V152.615H752.503V80.8205H609.453V41.8462H528.987V80.8205H353.652V0H276.166V27.8974H230.966V80.8205H158.448V113.641H109.274V80.8205Z" fill="#252E3A"/>
<path d="M1330.46 80.8205H1238V208H2321V41.8462H2252.5V107.487H2155.84V41.8462H1995.3V55.3846H1938.57V152.615H1874.69V80.8205H1753.65V41.8462H1685.57V80.8205H1537.22V0H1471.66V27.8974H1433.42V80.8205H1372.06V113.641H1330.46V80.8205Z" fill="#252E3A"/>
<path d="M276.81 126.534H169.816V163.528H0V208H1280V101.346H1045.89V13.9763H922.209V126.534H795.092V91.5071H636.074V136.373H510.92V39.9511H401.963V154.476H276.81V126.534Z" fill="#2A3342"/>
<path d="M1317.81 126.557H1210.82V163.552H1041V208.024H2321V101.37H2086.89V14H1963.21V126.557H1836.09V91.5308H1677.07V136.396H1551.92V39.9748H1442.96V154.5H1317.81V126.557Z" fill="#2A3342"/>
</svg>
