<svg viewBox="0 0 21 19" fill="none" xmlns="http://www.w3.org/2000/svg">
<path d="M0 1.04817C0.00192155 0.770955 0.112245 0.505629 0.307139 0.309508C0.502032 0.113386 0.765849 0.00221102 1.0416 0H19.9584C20.5338 0 21 0.469722 21 1.04817V17.9518C20.9981 18.229 20.8878 18.4944 20.6929 18.6905C20.498 18.8866 20.2341 18.9978 19.9584 19H1.0416C0.765254 18.9997 0.500322 18.8892 0.305014 18.6926C0.109706 18.4961 -1.40128e-07 18.2296 0 17.9518V1.04817ZM2.1 2.11111V16.8889H18.9V2.11111H2.1ZM4.2 4.22222H10.5V10.5556H4.2V4.22222ZM6.3 6.33333V8.44444H8.4V6.33333H6.3ZM4.2 12.6667H16.8V14.7778H4.2V12.6667ZM12.6 4.22222H16.8V6.33333H12.6V4.22222ZM12.6 8.44444H16.8V10.5556H12.6V8.44444Z" fill="#FFF2F1"/>
</svg>
