<svg viewBox="0 0 14 18" fill="none" xmlns="http://www.w3.org/2000/svg">
<path d="M13.8131 4.51205L9.53352 0.188839C9.4142 0.0683036 9.25312 0 9.08409 0H0.636364C0.284375 0 0 0.287277 0 0.642857V17.3571C0 17.7127 0.284375 18 0.636364 18H13.3636C13.7156 18 14 17.7127 14 17.3571V4.96808C14 4.79732 13.9324 4.63259 13.8131 4.51205ZM12.5324 5.26339H8.78977V1.48259L12.5324 5.26339ZM12.5682 16.5536H1.43182V1.44643H7.4375V5.78571C7.4375 6.00949 7.5255 6.2241 7.68213 6.38234C7.83877 6.54057 8.05121 6.62946 8.27273 6.62946H12.5682V16.5536ZM6.84091 11.1295H3.18182C3.09432 11.1295 3.02273 11.2018 3.02273 11.2902V12.2545C3.02273 12.3429 3.09432 12.4152 3.18182 12.4152H6.84091C6.92841 12.4152 7 12.3429 7 12.2545V11.2902C7 11.2018 6.92841 11.1295 6.84091 11.1295ZM3.02273 8.55804V9.52232C3.02273 9.61071 3.09432 9.68304 3.18182 9.68304H10.8182C10.9057 9.68304 10.9773 9.61071 10.9773 9.52232V8.55804C10.9773 8.46964 10.9057 8.39732 10.8182 8.39732H3.18182C3.09432 8.39732 3.02273 8.46964 3.02273 8.55804Z" fill="#FFF2F1"/>
</svg>
