<svg width="13" height="13" viewBox="0 0 13 13" fill="none" xmlns="http://www.w3.org/2000/svg">
<path d="M3.825 9.28509L4.92562 8.96759L11.5525 2.26134C11.6048 2.20777 11.6339 2.1358 11.6335 2.06095C11.6332 1.98611 11.6034 1.91441 11.5506 1.86134L11.1537 1.46009C11.1281 1.43374 11.0975 1.41276 11.0636 1.39837C11.0298 1.38399 10.9934 1.37649 10.9566 1.37632C10.9199 1.37614 10.8834 1.3833 10.8495 1.39736C10.8155 1.41142 10.7846 1.4321 10.7587 1.45821L4.14938 8.14696L3.82437 9.28446L3.825 9.28509ZM11.9394 0.665087L12.3362 1.06696C12.8837 1.62134 12.8888 2.51571 12.3463 3.06446L5.5175 9.97571L3.165 10.6532C3.02137 10.6934 2.86766 10.675 2.7376 10.602C2.60754 10.529 2.51175 10.4074 2.47125 10.2638C2.44111 10.1606 2.44068 10.051 2.47 9.94759L3.15437 7.54759L9.965 0.654462C10.0945 0.524061 10.2487 0.420751 10.4185 0.350557C10.5884 0.280364 10.7705 0.244692 10.9543 0.245623C11.1381 0.246554 11.3198 0.284069 11.4889 0.355979C11.6581 0.427889 11.8112 0.532756 11.9394 0.664462V0.665087ZM4.74 1.38571C5.05 1.38571 5.30125 1.64009 5.30125 1.95384C5.30174 2.028 5.28761 2.10154 5.25967 2.17025C5.23172 2.23895 5.19051 2.30147 5.13838 2.35423C5.08626 2.407 5.02424 2.44897 4.95589 2.47775C4.88753 2.50653 4.81417 2.52155 4.74 2.52196H2.495C1.875 2.52196 1.3725 3.03071 1.3725 3.65759V10.4738C1.3725 11.1013 1.875 11.6101 2.495 11.6101H9.23C9.85 11.6101 10.3531 11.1013 10.3531 10.4738V8.20196C10.3531 7.88821 10.6044 7.63384 10.9144 7.63384C11.2244 7.63384 11.4756 7.88821 11.4756 8.20259V10.4738C11.4756 11.7288 10.47 12.7463 9.23 12.7463H2.495C1.255 12.7463 0.25 11.7288 0.25 10.4738V3.65759C0.25 2.40321 1.255 1.38571 2.495 1.38571H4.74V1.38571Z" fill="#FFF2F1"/>
</svg>
